<?xml version="1.0" encoding="utf-8"?>
<!-- Generator: Adobe Illustrator 23.0.1, SVG Export Plug-In . SVG Version: 6.00 Build 0)  -->
<svg version="1.1" id="iriis-wslogan" xmlns="http://www.w3.org/2000/svg" xmlns:xlink="http://www.w3.org/1999/xlink" x="0px"
	 y="0px" viewBox="0 0 5000 4972.58" style="enable-background:new 0 0 5000 4972.58;" xml:space="preserve">
<style type="text/css">
	.st0{fill:#7A40DB;}
	.st1{fill-rule:evenodd;clip-rule:evenodd;fill:#7A40DB;}
</style>
<g id="slogan" transform="rotate(0 0 141.78939999999997)">
	<g transform="matrix(1 0 0 1 0 0)">
		<path class="st0" d="M311.38,4481.15v63.84H194.18v318.4h-78.62v-318.4H-0.02v-63.84H311.38z"/>
		<path class="st0" d="M469.29,4868.63L469.29,4868.63c-41.66,0-75.58-12.77-101.74-38.3s-39.24-59.58-39.24-102.15l0,0v-7.39
			c0-28.49,5.51-53.98,16.53-76.47c11.11-22.49,26.74-39.83,46.9-52.01c20.25-12.1,43.32-18.14,69.21-18.14l0,0
			c38.8,0,69.35,12.23,91.66,36.69c22.31,24.55,33.46,59.27,33.46,104.16l0,0v31.05H405.32c2.42,18.55,9.81,33.42,22.18,44.62
			c12.27,11.2,27.86,16.8,46.77,16.8l0,0c29.3,0,52.15-10.57,68.54-31.72l0,0l37.23,41.66c-11.38,16.13-26.74,28.67-46.1,37.63
			C514.49,4864.1,492.95,4868.63,469.29,4868.63z M460.69,4635.57L460.69,4635.57c-15.05,0-27.28,5.06-36.69,15.19
			c-9.32,10.12-15.28,24.64-17.87,43.55l0,0h105.5v-6.05c-0.36-16.76-4.93-29.75-13.71-38.98
			C489.14,4640.14,476.73,4635.57,460.69,4635.57z M2128.37,6769.05"/>
		<path class="st0" d="M938.33,4784.89L938.33,4784.89c0-9.32-4.57-16.62-13.71-21.91c-9.23-5.38-23.97-10.17-44.22-14.38l0,0
			c-67.56-14.16-101.33-42.83-101.33-86.02l0,0c0-25.18,10.44-46.23,31.31-63.17c20.97-16.85,48.34-25.27,82.12-25.27l0,0
			c36.02,0,64.82,8.47,86.42,25.4c21.59,17.02,32.39,39.07,32.39,66.13l0,0h-75.8c0-10.84-3.49-19.8-10.48-26.88
			s-17.92-10.62-32.79-10.62l0,0c-12.81,0-22.71,2.87-29.7,8.6c-6.99,5.82-10.48,13.22-10.48,22.18l0,0
			c0,8.33,3.99,15.1,11.96,20.29c7.88,5.11,21.28,9.54,40.18,13.31c18.91,3.76,34.85,8.02,47.85,12.77l0,0
			c40.05,14.69,60.07,40.19,60.07,76.47l0,0c0,25.89-11.11,46.82-33.33,62.77c-22.22,16.04-50.94,24.06-86.15,24.06l0,0
			c-23.74,0-44.84-4.26-63.3-12.77c-18.46-8.42-32.93-20.03-43.41-34.81c-10.57-14.78-15.86-30.78-15.86-47.98l0,0h72.04
			c0.63,13.53,5.6,23.88,14.92,31.05c9.23,7.17,21.64,10.75,37.23,10.75l0,0c14.51,0,25.49-2.78,32.93-8.33
			C934.62,4801.07,938.33,4793.85,938.33,4784.89z"/>
		<path class="st0" d="M1151.76,4579.39v283.99h-76.07v-283.99H1151.76z M1071.25,4505.88L1071.25,4505.88
			c0-11.38,3.76-20.74,11.29-28.09c7.62-7.35,18.01-11.02,31.18-11.02l0,0c12.9,0,23.21,3.67,30.91,11.02
			c7.71,7.35,11.56,16.71,11.56,28.09l0,0c0,11.56-3.9,21.01-11.69,28.36c-7.79,7.35-18.05,11.02-30.78,11.02
			c-12.81,0-23.12-3.67-30.91-11.02C1075.11,4526.89,1071.25,4517.44,1071.25,4505.88z"/>
		<path class="st0" d="M1225,4579.39h71.1l2.42,31.72c20.07-24.64,47.26-36.96,81.58-36.96l0,0c36.56,0,61.69,14.43,75.4,43.28l0,0
			c19.89-28.85,48.34-43.28,85.34-43.28l0,0c30.73,0,53.62,8.96,68.68,26.88c15.05,17.92,22.58,44.89,22.58,80.91l0,0v181.44h-76.07
			v-181.17c0-16.04-3.14-27.78-9.41-35.21c-6.36-7.44-17.52-11.16-33.46-11.16l0,0c-22.67,0-38.39,10.84-47.17,32.53l0,0
			l0.27,195.02h-75.93v-180.9c0-16.4-3.23-28.27-9.68-35.62c-6.45-7.35-17.47-11.02-33.06-11.02l0,0c-21.5,0-37.09,8.92-46.77,26.75
			l0,0v200.8H1225V4579.39z"/>
		<path class="st0" d="M1956.79,4720.11v3.9c0,43.73-9.9,78.76-29.7,105.1c-19.89,26.34-46.72,39.51-80.5,39.51l0,0
			c-28.67,0-51.88-9.99-69.62-29.97l0,0v134h-75.8v-393.26h70.29l2.69,27.82c18.37-22.04,42.33-33.06,71.9-33.06l0,0
			c35.03,0,62.23,12.95,81.58,38.84C1947.07,4638.89,1956.79,4674.6,1956.79,4720.11L1956.79,4720.11z M1880.99,4718.5
			L1880.99,4718.5c0-26.43-4.7-46.82-14.11-61.15c-9.32-14.34-22.89-21.5-40.72-21.5l0,0c-23.83,0-40.23,9.09-49.19,27.28l0,0
			v116.26c9.32,18.73,25.85,28.09,49.59,28.09l0,0C1862.84,4807.47,1880.99,4777.82,1880.99,4718.5z"/>
		<path class="st0" d="M2094.68,4460.18v403.2h-76.2v-403.2H2094.68z"/>
		<path class="st0" d="M2247.89,4579.39v283.99h-76.07v-283.99H2247.89z M2167.25,4505.88L2167.25,4505.88
			c0-11.38,3.81-20.74,11.42-28.09c7.62-7.35,18.01-11.02,31.18-11.02l0,0c12.9,0,23.21,3.67,30.91,11.02s11.56,16.71,11.56,28.09
			l0,0c0,11.56-3.9,21.01-11.69,28.36c-7.79,7.35-18.05,11.02-30.78,11.02c-12.81,0-23.12-3.67-30.91-11.02
			C2171.15,4526.89,2167.25,4517.44,2167.25,4505.88z"/>
		<path class="st0" d="M2418.03,4863.38h-76.2v-228.35h-42.2v-55.64h42.2v-24.19c0-31.81,9.14-56.54,27.42-74.19
			c18.28-17.56,43.9-26.34,76.87-26.34l0,0c10.48,0,23.34,1.75,38.57,5.24l0,0l-0.81,58.87c-6.27-1.61-13.98-2.42-23.12-2.42l0,0
			c-28.49,0-42.74,13.4-42.74,40.19l0,0v22.85h56.45v55.64h-56.45V4863.38z"/>
		<path class="st0" d="M2604.58,4579.39v283.99h-76.07v-283.99H2604.58z M2524.07,4505.88L2524.07,4505.88
			c0-11.38,3.81-20.74,11.42-28.09c7.62-7.35,17.96-11.02,31.05-11.02l0,0c12.99,0,23.3,3.67,30.91,11.02
			c7.71,7.35,11.56,16.71,11.56,28.09l0,0c0,11.56-3.9,21.01-11.69,28.36c-7.71,7.35-17.96,11.02-30.78,11.02
			s-23.07-3.67-30.78-11.02C2527.97,4526.89,2524.07,4517.44,2524.07,4505.88z"/>
		<path class="st0" d="M2795.96,4807.47L2795.96,4807.47c13.98,0,25.36-3.85,34.14-11.56c8.78-7.71,13.31-17.92,13.57-30.64l0,0
			h71.23c-0.18,19.17-5.42,36.78-15.72,52.82c-10.39,16.04-24.55,28.45-42.47,37.23c-17.92,8.87-37.72,13.31-59.4,13.31l0,0
			c-40.59,0-72.62-12.9-96.09-38.71c-23.47-25.8-35.21-61.47-35.21-106.98l0,0v-4.97c0-43.73,11.65-78.62,34.94-104.7
			c23.3-26.07,55.24-39.11,95.82-39.11l0,0c35.48,0,63.97,10.08,85.48,30.24c21.41,20.25,32.3,47.17,32.66,80.77l0,0h-71.23
			c-0.27-14.69-4.79-26.66-13.57-35.88c-8.78-9.14-20.34-13.71-34.67-13.71l0,0c-17.65,0-31,6.41-40.05,19.22
			c-8.96,12.9-13.44,33.78-13.44,62.63l0,0v7.93c0,29.21,4.44,50.18,13.3,62.9C2764.19,4801.07,2777.77,4807.47,2795.96,4807.47z"/>
		<path class="st0" d="M3210.16,4863.38h-76.61c-3.49-6.81-6.05-15.28-7.66-25.4l0,0c-18.37,20.43-42.25,30.64-71.63,30.64l0,0
			c-27.86,0-50.94-8.06-69.21-24.19c-18.28-16.04-27.42-36.33-27.42-60.88l0,0c0-30.11,11.16-53.18,33.46-69.22
			c22.31-16.13,54.56-24.28,96.76-24.46l0,0h34.94v-16.26c0-13.17-3.4-23.65-10.21-31.45c-6.72-7.88-17.34-11.83-31.85-11.83l0,0
			c-12.81,0-22.85,3.05-30.1,9.14s-10.89,14.47-10.89,25.13l0,0h-75.8c0-16.4,5.06-31.58,15.19-45.56
			c10.12-14.07,24.46-25.04,43.01-32.93c18.64-7.97,39.47-11.96,62.49-11.96l0,0c35.03,0,62.81,8.78,83.33,26.34
			c20.61,17.56,30.91,42.29,30.91,74.19l0,0v123.11c0.18,26.88,3.94,47.26,11.29,61.15l0,0V4863.38z M3070.79,4810.56
			L3070.79,4810.56c11.2,0,21.5-2.46,30.91-7.39c9.5-5.02,16.53-11.74,21.1-20.16l0,0v-48.79h-28.36
			c-37.99,0-58.24,13.13-60.75,39.38l0,0l-0.27,4.44c0,9.5,3.36,17.29,10.08,23.39C3050.14,4807.52,3059.24,4810.56,3070.79,4810.56
			z M2128.37,6769.05"/>
		<path class="st0" d="M3492.53,4460.18v403.2h-76.07v-403.2H3492.53z"/>
		<path class="st0" d="M3807.02,4863.38h-76.61c-3.49-6.81-6.05-15.28-7.66-25.4l0,0c-18.37,20.43-42.24,30.64-71.63,30.64l0,0
			c-27.86,0-50.94-8.06-69.21-24.19c-18.28-16.04-27.42-36.33-27.42-60.88l0,0c0-30.11,11.15-53.18,33.46-69.22
			c22.31-16.13,54.56-24.28,96.77-24.46l0,0h34.94v-16.26c0-13.17-3.4-23.65-10.21-31.45c-6.72-7.88-17.34-11.83-31.85-11.83l0,0
			c-12.72,0-22.71,3.05-29.97,9.14c-7.26,6.09-10.89,14.47-10.89,25.13l0,0h-75.93c0-16.4,5.06-31.58,15.19-45.56
			c10.21-14.07,24.59-25.04,43.14-32.93c18.55-7.97,39.33-11.96,62.36-11.96l0,0c35.03,0,62.85,8.78,83.46,26.34
			c20.52,17.56,30.78,42.29,30.78,74.19l0,0v123.11c0.18,26.88,3.94,47.26,11.29,61.15l0,0V4863.38z M3667.65,4810.56
			L3667.65,4810.56c11.2,0,21.5-2.46,30.91-7.39c9.5-5.02,16.53-11.74,21.1-20.16l0,0v-48.79h-28.36
			c-37.99,0-58.19,13.13-60.61,39.38l0,0l-0.27,4.44c0,9.5,3.31,17.29,9.95,23.39C3647,4807.52,3656.09,4810.56,3667.65,4810.56z
			 M2128.37,6769.05"/>
		<path class="st0" d="M4062.91,4579.39l52.82,191.39l52.68-191.39h79.29l-95.82,283.99h-72.44l-95.82-283.99H4062.91z"/>
		<path class="st0" d="M4371.88,4579.39v283.99h-76.07v-283.99H4371.88z M4291.24,4505.88L4291.24,4505.88
			c0-11.38,3.81-20.74,11.42-28.09c7.62-7.35,18.01-11.02,31.18-11.02l0,0c12.9,0,23.21,3.67,30.91,11.02
			c7.71,7.35,11.56,16.71,11.56,28.09l0,0c0,11.56-3.9,21.01-11.69,28.36c-7.79,7.35-18.05,11.02-30.78,11.02
			c-12.81,0-23.12-3.67-30.91-11.02C4295.14,4526.89,4291.24,4517.44,4291.24,4505.88z"/>
		<path class="st0" d="M4433.3,4719.31L4433.3,4719.31c0-44.26,9.94-79.52,29.84-105.77c19.8-26.25,46.95-39.38,81.44-39.38l0,0
			c27.69,0,50.53,10.3,68.54,30.91l0,0v-144.88h76.07v403.2h-68.54l-3.63-30.24c-18.91,23.65-43.23,35.48-72.98,35.48l0,0
			c-33.42,0-60.21-13.17-80.37-39.51C4443.43,4802.77,4433.3,4766.17,4433.3,4719.31z M4509.1,4724.82L4509.1,4724.82
			c0,26.61,4.66,47,13.98,61.15c9.23,14.16,22.71,21.24,40.45,21.24l0,0c23.38,0,39.92-9.9,49.59-29.7l0,0v-112.09
			c-9.5-19.71-25.85-29.57-49.05-29.57l0,0C4527.42,4635.84,4509.1,4665.5,4509.1,4724.82z"/>
		<path class="st0" d="M5000.05,4863.38h-76.74c-3.49-6.81-6-15.28-7.53-25.4l0,0c-18.37,20.43-42.29,30.64-71.77,30.64l0,0
			c-27.78,0-50.8-8.06-69.08-24.19c-18.28-16.04-27.42-36.33-27.42-60.88l0,0c0-30.11,11.15-53.18,33.46-69.22
			c22.31-16.13,54.52-24.28,96.63-24.46l0,0h34.94v-16.26c0-13.17-3.36-23.65-10.08-31.45c-6.72-7.88-17.34-11.83-31.85-11.83l0,0
			c-12.81,0-22.85,3.05-30.1,9.14s-10.89,14.47-10.89,25.13l0,0h-75.8c0-16.4,5.06-31.58,15.19-45.56
			c10.12-14.07,24.46-25.04,43.01-32.93c18.55-7.97,39.38-11.96,62.49-11.96l0,0c35.03,0,62.81,8.78,83.33,26.34
			c20.61,17.56,30.91,42.29,30.91,74.19l0,0v123.11c0.18,26.88,3.94,47.26,11.29,61.15l0,0V4863.38z M4860.68,4810.56
			L4860.68,4810.56c11.2,0,21.5-2.46,30.91-7.39c9.41-5.02,16.4-11.74,20.97-20.16l0,0v-48.79h-28.36
			c-37.99,0-58.19,13.13-60.61,39.38l0,0l-0.27,4.44c0,9.5,3.31,17.29,9.95,23.39C4839.98,4807.52,4849.12,4810.56,4860.68,4810.56z
			"/>
	</g>
</g>
<g id="iris-text">
	<path id="I" class="st0" d="M66.06,3835.66V1129.39h604.23v2706.27H66.06z"/>
	<path id="r" class="st0" d="M2134.06,1716.6L2134.06,1716.6h72.34v514.87h-208.5c-178.72,0-268.07,99.29-268.07,297.86l0,0v1306.33
		h-591.47v-2106.3h582.95v302.12c22.69-93.61,69.5-169.5,140.42-227.65C1932.65,1745.67,2023.42,1716.6,2134.06,1716.6z"/>
	<g id="i">
		<rect x="2491.49" y="1729.36" class="st0" width="591.47" height="2106.3"/>
		<rect x="2478.72" y="988.97" class="st0" width="617" height="459.56"/>
	</g>
	<path id="s" class="st0" d="M4355.24,3329.3L4355.24,3329.3v-238.29c0-36.88-8.51-63.12-25.53-78.72
		c-17.02-15.6-46.81-23.4-89.36-23.4l0,0h-242.54c-354.6,0-531.89-156.02-531.89-468.07l0,0v-319.14
		c0-314.88,180.13-472.32,540.4-472.32l0,0h361.69c360.27,0,540.4,157.44,540.4,472.32l0,0v187.23h-570.19v-153.19
		c0-36.88-8.51-63.12-25.53-78.72c-17.02-15.6-46.81-23.4-89.36-23.4l0,0h-63.83c-42.55,0-72.34,7.8-89.36,23.4
		c-17.02,15.6-25.53,41.84-25.53,78.72l0,0v255.31c0,36.88,8.51,63.12,25.53,78.72c17.02,15.6,46.81,23.4,89.36,23.4l0,0h242.54
		c354.6,0,531.89,154.6,531.89,463.81l0,0v306.37c0,314.88-180.14,472.32-540.4,472.32l0,0h-378.71
		c-357.43,0-536.15-157.44-536.15-472.32l0,0v-182.97h578.7v148.93c0,70.92,36.88,106.38,110.63,106.38l0,0h72.34
		C4316.95,3435.67,4355.24,3400.21,4355.24,3329.3z"/>
</g>
<g id="wings" transform="rotate(0 44.57339999999999 0)">
	<g transform="matrix(1 0 0 1 0 0)">
		<g>
			<path class="st1" d="M1814.82,919.66c-104.39-114.8-280.5-165.1-269.34-384.02c37.69-23.33,86.03-37.13,157.15-30.35
				c-82.18-123.22-359.1-274.62-291.81-434.57c51.02-121.26,320.54-62.88,482.57,0c189.56,73.57,652.12,421.08,763.07,707.45
				c103.62,267.48,154.07,820.61-325.42,677.13c-80.44-24.05-201.98-88.67-269.34-131.39c-21.41-13.61-22.49-43.65-44.9-60.65
				c-102.03-77.46-262.32-108.99-269.31-282.95C1743.64,936.43,1778.38,927.24,1814.82,919.66z M2084.13,1273.41
				c189.46,121.54,346.95,188.31,516.22,40.42c75.81-105.64,65.31-393,11.25-495.22c-143.17-270.71-472.1-620.83-729.45-707.45
				c-125.58-42.25-331.64-57.04-404-30.32c-2.52,7.86-0.31,19.98-11.22,20.2c23.77,244.77,293.42,321.91,370.35,485.15
				c-86.25,3.98-141.52-40.67-213.23-20.23c-43.34,241.44,248.8,267.54,347.89,414.37c-67.73-5.87-110.89-32.81-168.33,0
				C1815.97,1133.41,1952.93,1189.18,2084.13,1273.41z"/>
			<path class="st1" d="M3845.99,495.18c48,17.49,126.05,7.8,157.18,40.48c7.46,212.2-152.3,273.78-269.37,373.92
				c17.12,25.04,69.72,18.08,67.36,60.65c-21.47,183-100.32,175.42-258.09,293.08c-128.88,96.13-515.13,350.87-684.56,111.17
				c-111.42-157.49,3.17-567.95,89.76-707.45c159.85-257.38,527.81-526.75,707.02-596.29c101.13-39.27,421.74-124.62,482.54-20.23
				C4229.83,208.47,3929.26,390.51,3845.99,495.18z M3666.5,111.13c-354.63,182.88-738.55,516.93-774.38,960.14
				c-9.88,122.91,22.53,160.78,56.14,242.56c181.91,153.27,338.01,73.95,516.22-40.42c135.56-87.03,273.44-147.21,280.53-293.11
				c-53.81-42.35-118.75,12.37-168.33-10.1c112.94-131.02,387.53-169.52,347.89-404.28c-74.82-20.82-131.86,27.15-224.48,20.23
				c108.03-172.47,377.68-252.53,370.35-495.22C3961.98,17.55,3797.93,109.3,3666.5,111.13z"/>
			<path class="st1" d="M2308.58,667c-123.69-94.11-186.91-242.71-336.64-313.3c-86.37,11.93-18.02,113.65-11.22,161.72
				c-74.16-3.95-57.85-89.42-101.01-121.3c-6.43-46.2,27.5-56.11,33.68-90.94C2135.99,330.61,2226.62,494.9,2308.58,667z"/>
			<path class="st1" d="M3655.29,303.17c59.03,66.68,13.24,184.37-67.3,212.24c7.33-48.28,67.67-137.14,0-161.72
				c-164.7,60.59-219.2,220.38-347.95,313.3C3322.01,494.9,3412.67,330.61,3655.29,303.17z"/>
			<path class="st1" d="M2084.13,697.32c199.62,35.85,301.9,213.2,336.67,363.82c-93.15-108.09-143.95-254.4-280.56-323.37
				c-44.09,66.92,38.81,106.35,44.9,161.69C2122.01,862.11,2051.11,788.82,2084.13,697.32z"/>
			<path class="st1" d="M3464.49,697.32c36.48,91.5-41.57,154.51-89.76,202.14c-23.49-48.38,70.62-77.67,44.83-161.69
				c-143.95,62.39-201.89,202.23-280.53,323.37C3124.37,950.2,3285.09,713.79,3464.49,697.32z"/>
			<path class="st1" d="M2420.8,1253.16c-62.26-38.22-76.37-119.87-157.12-141.46c-9.07,1.9-11.19,10.1-22.43,10.04
				c-4.29,34.18,19.45,43.16,33.65,60.68c-39.92,24.89-89.57-38.37-89.76-60.68C2183.74,984.16,2451.53,1163.15,2420.8,1253.16z"/>
			<path class="st1" d="M3273.69,1192.57c4.51-26.32,33.49-30.51,33.68-60.68c-2.11-8.17-11.28-10.07-11.22-20.16
				c-87.43,15.53-108.31,91.03-157.12,141.46c-58.5-68.45,209.28-269,224.42-141.46
				C3367.46,1145.34,3327.54,1187.32,3273.69,1192.57z"/>
		</g>
	</g>
	<rect x="2478.72" y="988.97" class="st0" width="617" height="459.56"/>
</g>
</svg>
